<mxfile host="app.diagrams.net" modified="2023-12-05T08:11:42.646Z" agent="Mozilla/5.0 (Windows NT 10.0; Win64; x64) AppleWebKit/537.36 (KHTML, like Gecko) Chrome/103.0.0.0 Safari/537.36" version="22.1.5" etag="nyqsPA9v06qVp0xcTE9I" type="github">
  <diagram name="第 1 页" id="MpoewlGlZqTYuMB2Wigz">
    <mxGraphModel>
      <root>
        <mxCell id="0" />
        <mxCell id="1" parent="0" />
      </root>
    </mxGraphModel>
  </diagram>
</mxfile>
